<?xml version="1.0" encoding="UTF-8"?>
<svg height="16px" viewBox="0 0 16 16" width="16px" xmlns="http://www.w3.org/2000/svg" xmlns:xlink="http://www.w3.org/1999/xlink">
    <filter id="a" height="100%" width="100%" x="0%" y="0%">
        <feColorMatrix in="SourceGraphic" type="matrix" values="0 0 0 0 1 0 0 0 0 1 0 0 0 0 1 0 0 0 1 0"/>
    </filter>
    <mask id="b">
        <g filter="url(#a)">
            <rect fill-opacity="0.1" height="16" width="16"/>
        </g>
    </mask>
    <clipPath id="c">
        <rect height="152" width="192"/>
    </clipPath>
    <mask id="d">
        <g filter="url(#a)">
            <rect fill-opacity="0.1" height="16" width="16"/>
        </g>
    </mask>
    <clipPath id="e">
        <rect height="152" width="192"/>
    </clipPath>
    <g clip-path="url(#c)" mask="url(#b)" transform="matrix(1 0 0 1 -168 -16)">
        <path d="m 102.527344 57.355469 c -11.695313 -1.484375 -19.335938 1.019531 -25.878906 4.417969 c 6.648437 -8.367188 14.945312 -10.984376 25.878906 -4.417969 z m 0 0" fill="#12121c" fill-rule="evenodd"/>
    </g>
    <g clip-path="url(#e)" mask="url(#d)" transform="matrix(1 0 0 1 -168 -16)">
        <path d="m 38.578125 63.035156 c 11.121094 -3.875 19.125 -3.015625 26.242187 -1.046875 c -8.277343 -6.800781 -16.945312 -7.640625 -26.242187 1.046875 z m 0 0" fill="#12121c" fill-rule="evenodd"/>
    </g>
    <g fill="#241f31">
        <path d="m 2.5625 5.5 c 1.699219 -1.085938 3.355469 -1.09375 5 0 c 0 -1.105469 -1.121094 -2 -2.5 -2 s -2.5 0.894531 -2.5 2 z m 0 0"/>
        <path d="m 9 5 c 1.699219 -1.085938 3.355469 -1.09375 5 0 c 0 -1.105469 -1.121094 -2 -2.5 -2 s -2.5 0.894531 -2.5 2 z m 0 0"/>
        <path d="m 4 0 c -1.089844 0 -2 0.910156 -2 2 v 12 c 0 1.089844 0.910156 2 2 2 h 6 l 5 -5 v -9 c 0 -1.089844 -0.910156 -2 -2 -2 z m 0 2 h 9 v 9 h -3 v 3 h -6 z m 0 0"/>
        <path d="m 14 5.328125 c -4.28125 2.144531 -8.367188 2.070313 -11 1.65625 v 2.03125 c 4.265625 3.035156 8.101562 1.625 11 -0.78125 z m 0 0" fill-rule="evenodd"/>
    </g>
</svg>
