<?xml version="1.0" encoding="UTF-8" standalone="no"?>
<!-- Created with Inkscape (http://www.inkscape.org/) -->
<svg
   xmlns:dc="http://purl.org/dc/elements/1.1/"
   xmlns:cc="http://creativecommons.org/ns#"
   xmlns:rdf="http://www.w3.org/1999/02/22-rdf-syntax-ns#"
   xmlns:svg="http://www.w3.org/2000/svg"
   xmlns="http://www.w3.org/2000/svg"
   xmlns:sodipodi="http://sodipodi.sourceforge.net/DTD/sodipodi-0.dtd"
   xmlns:inkscape="http://www.inkscape.org/namespaces/inkscape"
   version="1.0"
   width="30"
   height="30"
   id="svg2"
   sodipodi:version="0.32"
   inkscape:version="0.46"
   sodipodi:docname="camera-icon.svg"
   sodipodi:docbase="/home/users/patrys/Desktop/lab/cheese/data/pixmaps"
   inkscape:output_extension="org.inkscape.output.svg.inkscape">
  <metadata
     id="metadata23">
    <rdf:RDF>
      <cc:Work
         rdf:about="">
        <dc:format>image/svg+xml</dc:format>
        <dc:type
           rdf:resource="http://purl.org/dc/dcmitype/StillImage" />
      </cc:Work>
    </rdf:RDF>
  </metadata>
  <sodipodi:namedview
     inkscape:window-height="722"
     inkscape:window-width="1288"
     inkscape:pageshadow="2"
     inkscape:pageopacity="0"
     guidetolerance="10.0"
     gridtolerance="10.0"
     objecttolerance="10.0"
     borderopacity="1.0"
     bordercolor="#666666"
     pagecolor="#ffffff"
     id="base"
     width="30px"
     height="30px"
     inkscape:zoom="13.566667"
     inkscape:cx="19.732415"
     inkscape:cy="17.268334"
     inkscape:window-x="3"
     inkscape:window-y="51"
     inkscape:current-layer="layer3"
     showgrid="true">
    <inkscape:grid
       type="xygrid"
       id="grid5139"
       visible="true"
       enabled="true" />
  </sodipodi:namedview>
  <defs
     id="defs4">
    <inkscape:perspective
       sodipodi:type="inkscape:persp3d"
       inkscape:vp_x="0 : 15 : 1"
       inkscape:vp_y="0 : 1000 : 0"
       inkscape:vp_z="30 : 15 : 1"
       inkscape:persp3d-origin="15 : 10 : 1"
       id="perspective24" />
    <filter
       x="-0.1545473"
       width="1.3090945"
       y="-0.09807618"
       height="1.1961524"
       id="filter3168">
      <feGaussianBlur
         inkscape:collect="always"
         stdDeviation="0.37089844"
         id="feGaussianBlur3170" />
    </filter>
    <filter
       x="-0.15620252"
       width="1.3124051"
       y="-0.09742105"
       height="1.1948421"
       id="filter3172">
      <feGaussianBlur
         inkscape:collect="always"
         stdDeviation="0.36152344"
         id="feGaussianBlur3174" />
    </filter>
    <filter
       x="-0.1607649"
       width="1.3215297"
       y="-0.095726728"
       height="1.1914535"
       id="filter3176">
      <feGaussianBlur
         inkscape:collect="always"
         stdDeviation="0.34892578"
         id="feGaussianBlur3178" />
    </filter>
    <filter
       x="-0.21608295"
       width="1.4321659"
       y="-0.15424342"
       height="1.3084868"
       id="filter4158">
      <feGaussianBlur
         inkscape:collect="always"
         stdDeviation="0.5723877"
         id="feGaussianBlur4160" />
    </filter>
    <filter
       x="-0.21392"
       width="1.42784"
       y="-0.15536475"
       height="1.3107295"
       id="filter4162">
      <feGaussianBlur
         inkscape:collect="always"
         stdDeviation="0.58754883"
         id="feGaussianBlur4164" />
    </filter>
    <filter
       x="-0.21760684"
       width="1.4352137"
       y="-0.15347622"
       height="1.3069524"
       id="filter4166">
      <feGaussianBlur
         inkscape:collect="always"
         stdDeviation="0.55942383"
         id="feGaussianBlur4168" />
    </filter>
  </defs>
  <g
     style="display:inline"
     id="layer3"
     transform="matrix(0.4962866,0,0,0.4962866,0.1114021,0.1114022)">
    <path
       style="opacity:1;fill:#ffffff;fill-opacity:1;stroke:none;stroke-width:5;stroke-linecap:round;stroke-linejoin:round;stroke-miterlimit:4;stroke-dasharray:none;stroke-dashoffset:0;stroke-opacity:1"
       d="M 0 0 L 0 30 L 30 30 L 30 0 L 0 0 z M 8.09375 4.34375 L 22.09375 4.34375 C 22.701731 4.3437501 23.1875 4.8295183 23.1875 5.4375 L 23.1875 6 L 27.9375 6 C 28.696837 6 29.312499 6.6156624 29.3125 7.375 L 29.3125 24.15625 C 29.3125 24.915587 28.696836 25.531248 27.9375 25.53125 L 2.25 25.53125 C 1.4906623 25.53125 0.87500001 24.915587 0.875 24.15625 L 0.875 7.375 C 0.875 6.6156626 1.4906623 6 2.25 6 L 7 6 L 7 5.4375 C 7 4.8295185 7.4857684 4.3437499 8.09375 4.34375 z M 15.09375 7.71875 C 10.65184 7.71875 7.0624999 11.339339 7.0625 15.78125 C 7.0625 20.22316 10.65184 23.8125 15.09375 23.8125 C 19.535661 23.8125 23.125001 20.22316 23.125 15.78125 C 23.125 11.33934 19.535661 7.7187502 15.09375 7.71875 z M 14.5625 10.5625 C 14.738015 10.544672 14.91353 10.5625 15.09375 10.5625 C 17.977266 10.5625 20.313345 12.897735 20.3125 15.78125 C 20.313345 18.664766 17.977265 20.999999 15.09375 21 C 12.210234 21 9.8741551 18.664765 9.875 15.78125 C 9.8742074 13.077955 11.929774 10.82992 14.5625 10.5625 z "
       transform="matrix(2.0149647,0,0,2.0149647,-0.2244713,-0.2244715)"
       id="rect5141" />
  </g>
</svg>
