<?xml version="1.0" encoding="UTF-8" standalone="no"?>
<!-- Created with Inkscape (http://www.inkscape.org/) -->
<svg
   xmlns:dc="http://purl.org/dc/elements/1.1/"
   xmlns:cc="http://web.resource.org/cc/"
   xmlns:rdf="http://www.w3.org/1999/02/22-rdf-syntax-ns#"
   xmlns:svg="http://www.w3.org/2000/svg"
   xmlns="http://www.w3.org/2000/svg"
   xmlns:sodipodi="http://sodipodi.sourceforge.net/DTD/sodipodi-0.dtd"
   xmlns:inkscape="http://www.inkscape.org/namespaces/inkscape"
   version="1.0"
   width="30"
   height="30"
   id="svg2"
   sodipodi:version="0.32"
   inkscape:version="0.45.1"
   sodipodi:docname="camera-icon.svg"
   sodipodi:docbase="/home/users/patrys/Desktop/lab/cheese/data/pixmaps"
   inkscape:output_extension="org.inkscape.output.svg.inkscape">
  <metadata
     id="metadata23">
    <rdf:RDF>
      <cc:Work
         rdf:about="">
        <dc:format>image/svg+xml</dc:format>
        <dc:type
           rdf:resource="http://purl.org/dc/dcmitype/StillImage" />
      </cc:Work>
    </rdf:RDF>
  </metadata>
  <sodipodi:namedview
     inkscape:window-height="620"
     inkscape:window-width="872"
     inkscape:pageshadow="2"
     inkscape:pageopacity="0.0"
     guidetolerance="10.0"
     gridtolerance="10.0"
     objecttolerance="10.0"
     borderopacity="1.0"
     bordercolor="#666666"
     pagecolor="#ffffff"
     id="base"
     width="30px"
     height="30px"
     inkscape:zoom="6.7833333"
     inkscape:cx="30"
     inkscape:cy="12.309582"
     inkscape:window-x="0"
     inkscape:window-y="25"
     inkscape:current-layer="svg2" />
  <defs
     id="defs4">
    <filter
       x="-0.1545473"
       width="1.3090945"
       y="-0.09807618"
       height="1.1961524"
       id="filter3168">
      <feGaussianBlur
         inkscape:collect="always"
         stdDeviation="0.37089844"
         id="feGaussianBlur3170" />
    </filter>
    <filter
       x="-0.15620252"
       width="1.3124051"
       y="-0.09742105"
       height="1.1948421"
       id="filter3172">
      <feGaussianBlur
         inkscape:collect="always"
         stdDeviation="0.36152344"
         id="feGaussianBlur3174" />
    </filter>
    <filter
       x="-0.1607649"
       width="1.3215297"
       y="-0.095726728"
       height="1.1914535"
       id="filter3176">
      <feGaussianBlur
         inkscape:collect="always"
         stdDeviation="0.34892578"
         id="feGaussianBlur3178" />
    </filter>
    <filter
       x="-0.21608295"
       width="1.4321659"
       y="-0.15424342"
       height="1.3084868"
       id="filter4158">
      <feGaussianBlur
         inkscape:collect="always"
         stdDeviation="0.5723877"
         id="feGaussianBlur4160" />
    </filter>
    <filter
       x="-0.21392"
       width="1.42784"
       y="-0.15536475"
       height="1.3107295"
       id="filter4162">
      <feGaussianBlur
         inkscape:collect="always"
         stdDeviation="0.58754883"
         id="feGaussianBlur4164" />
    </filter>
    <filter
       x="-0.21760684"
       width="1.4352137"
       y="-0.15347622"
       height="1.3069524"
       id="filter4166">
      <feGaussianBlur
         inkscape:collect="always"
         stdDeviation="0.55942383"
         id="feGaussianBlur4168" />
    </filter>
  </defs>
  <g
     style="display:inline"
     id="layer3"
     transform="matrix(0.4962866,0,0,0.4962866,0.1114021,0.1114022)">
    <g
       style="opacity:1;fill:#ffffff;fill-opacity:1;display:inline"
       id="g2183">
      <g
         style="fill:#ffffff;fill-opacity:1"
         id="g2185">
        <rect
           width="32.623775"
           height="5.6962147"
           rx="2.2113023"
           ry="2.2113023"
           x="13.688112"
           y="8.6353283"
           style="fill:#ffffff;fill-opacity:1;stroke:none;stroke-width:2;stroke-miterlimit:4;stroke-dasharray:none;stroke-opacity:1"
           id="rect2187" />
        <path
           d="M 4.0940897,11.993542 C 2.564051,11.993542 1.3498196,13.244365 1.3498196,14.774403 L 1.3498196,48.583811 C 1.3498196,50.113849 2.564051,51.364671 4.0940897,51.364671 L 55.90591,51.364671 C 57.435948,51.364671 58.65018,50.113849 58.65018,48.583811 L 58.65018,14.774403 C 58.65018,13.244365 57.435948,11.993542 55.90591,11.993542 L 4.0940897,11.993542 z M 30,15.469618 C 38.950294,15.469618 46.209489,22.728813 46.209489,31.679107 C 46.20949,40.6294 38.950294,47.888596 30,47.888596 C 21.049708,47.888596 13.790511,40.6294 13.790511,31.679107 C 13.790511,22.728813 21.049706,15.469618 30,15.469618 z "
           style="fill:#ffffff;fill-opacity:1;stroke:none;stroke-width:2;stroke-miterlimit:4;stroke-dasharray:none;stroke-opacity:1"
           id="path2189" />
        <path
           d="M 46.06637,34.20763 C 46.068254,40.635655 40.857839,45.847598 34.429814,45.847598 C 28.001788,45.847598 22.791373,40.635655 22.793257,34.20763 C 22.791373,27.779605 28.001788,22.567662 34.429814,22.567662 C 40.857839,22.567662 46.068254,27.779605 46.06637,34.20763 L 46.06637,34.20763 z "
           transform="matrix(0.9038829,0,0,0.9038829,-1.1205199,0.7594145)"
           style="fill:#ffffff;fill-opacity:1;stroke:none;stroke-width:2;stroke-miterlimit:4;stroke-dasharray:none;stroke-opacity:1;display:inline"
           id="path2191" />
      </g>
    </g>
  </g>
</svg>
